<svg width="42" height="42" viewBox="0 0 42 42" fill="none" xmlns="http://www.w3.org/2000/svg">
<path d="M15.785 36.75H4.375C1.9635 36.75 0 34.7882 0 32.375V4.375C0 1.96175 1.9635 0 4.375 0H25.375C27.7865 0 29.75 1.96175 29.75 4.375V14.98C29.75 15.463 29.358 15.855 28.875 15.855C28.392 15.855 28 15.463 28 14.98V4.375C28 2.92775 26.8223 1.75 25.375 1.75H4.375C2.92775 1.75 1.75 2.92775 1.75 4.375V32.375C1.75 33.8222 2.92775 35 4.375 35H15.785C16.268 35 16.66 35.392 16.66 35.875C16.66 36.358 16.268 36.75 15.785 36.75Z" fill="black"/>
<path d="M23.625 15.75H6.125C5.642 15.75 5.25 15.358 5.25 14.875C5.25 14.392 5.642 14 6.125 14H23.625C24.108 14 24.5 14.392 24.5 14.875C24.5 15.358 24.108 15.75 23.625 15.75Z" fill="black"/>
<path d="M16.625 22.75H6.125C5.642 22.75 5.25 22.358 5.25 21.875C5.25 21.392 5.642 21 6.125 21H16.625C17.108 21 17.5 21.392 17.5 21.875C17.5 22.358 17.108 22.75 16.625 22.75Z" fill="black"/>
<path d="M14.875 8.75H6.125C5.642 8.75 5.25 8.358 5.25 7.875C5.25 7.392 5.642 7 6.125 7H14.875C15.358 7 15.75 7.392 15.75 7.875C15.75 8.358 15.358 8.75 14.875 8.75Z" fill="black"/>
<path d="M30.6249 42C24.3529 42 19.2499 36.897 19.2499 30.625C19.2499 24.353 24.3529 19.25 30.6249 19.25C36.8969 19.25 41.9999 24.353 41.9999 30.625C41.9999 36.897 36.8969 42 30.6249 42ZM30.6249 21C25.3172 21 20.9999 25.319 20.9999 30.625C20.9999 35.931 25.3172 40.25 30.6249 40.25C35.9327 40.25 40.2499 35.931 40.2499 30.625C40.2499 25.319 35.9327 21 30.6249 21Z" fill="black"/>
<path d="M30.6249 36.75C30.1419 36.75 29.7499 36.358 29.7499 35.875V25.375C29.7499 24.892 30.1419 24.5 30.6249 24.5C31.1079 24.5 31.4999 24.892 31.4999 25.375V35.875C31.4999 36.358 31.1079 36.75 30.6249 36.75Z" fill="black"/>
<path d="M35.8749 31.5H25.3749C24.8919 31.5 24.4999 31.108 24.4999 30.625C24.4999 30.142 24.8919 29.75 25.3749 29.75H35.8749C36.3579 29.75 36.7499 30.142 36.7499 30.625C36.7499 31.108 36.3579 31.5 35.8749 31.5Z" fill="black"/>
</svg>
