<svg width="38" height="38" viewBox="0 0 38 38" fill="none" xmlns="http://www.w3.org/2000/svg">
<path fill-rule="evenodd" clip-rule="evenodd" d="M28 1.69231H22.4615V17.0948C23.7336 16.5391 25.1385 16.2308 26.6154 16.2308C27.0848 16.2308 27.547 16.2619 28 16.3223V1.69231ZM28.6923 16.4385V1.69231C28.6923 1.30996 28.3824 1 28 1H22.4615C22.0792 1 21.7692 1.30996 21.7692 1.69231V17.4285C20.4081 18.148 19.2261 19.1612 18.3077 20.3836V10.6923C18.3077 10.3099 17.9977 10 17.6154 10H12.0769C11.6946 10 11.3846 10.3099 11.3846 10.6923V26.6154C11.3846 26.9977 11.6946 27.3077 12.0769 27.3077H16.2535C16.6097 32.7202 21.1128 37 26.6154 37C32.3507 37 37 32.3507 37 26.6154C37 21.5914 33.4323 17.4007 28.6923 16.4385ZM17.6154 10.6923H12.0769V26.6154H16.2308C16.2308 24.7273 16.7347 22.9567 17.6154 21.4312V10.6923ZM1.69231 18.3077H7.23077V26.6154H1.69231V18.3077ZM1 18.3077C1 17.9253 1.30996 17.6154 1.69231 17.6154H7.23077C7.61313 17.6154 7.92308 17.9253 7.92308 18.3077V26.6154C7.92308 26.9977 7.61313 27.3077 7.23077 27.3077H1.69231C1.30996 27.3077 1 26.9977 1 26.6154V18.3077ZM26.6154 36.3077C31.9683 36.3077 36.3077 31.9683 36.3077 26.6154C36.3077 21.2625 31.9683 16.9231 26.6154 16.9231C21.2625 16.9231 16.9231 21.2625 16.9231 26.6154C16.9231 31.9683 21.2625 36.3077 26.6154 36.3077ZM26.6154 25.5769C27.7625 25.5769 28.6923 24.6471 28.6923 23.5C28.6923 22.3529 27.7625 21.4231 26.6154 21.4231C25.4683 21.4231 24.5385 22.3529 24.5385 23.5C24.5385 24.6471 25.4683 25.5769 26.6154 25.5769ZM26.6154 26.2692C28.1448 26.2692 29.3846 25.0294 29.3846 23.5C29.3846 21.9706 28.1448 20.7308 26.6154 20.7308C25.086 20.7308 23.8462 21.9706 23.8462 23.5C23.8462 25.0294 25.086 26.2692 26.6154 26.2692ZM26.6154 27.6538C29.0566 27.6538 31.077 29.4595 31.4125 31.8077H21.8182C22.1537 29.4595 24.1742 27.6538 26.6154 27.6538ZM26.6154 26.9615C23.7906 26.9615 21.4597 29.0763 21.1196 31.8091C21.0724 32.1885 21.3869 32.5 21.7692 32.5H31.4615C31.8439 32.5 32.1584 32.1885 32.1112 31.8091C31.7711 29.0763 29.4402 26.9615 26.6154 26.9615Z" fill="#111111" stroke="#111111" stroke-width="0.8"/>
</svg>
