<svg width="38" height="38" viewBox="0 0 38 38" fill="none" xmlns="http://www.w3.org/2000/svg">
<path d="M32.2963 1.03079L32.2963 1.03079L31.6544 1.59718L31.5559 1.57988C31.5559 1.57989 31.5559 1.5799 31.5559 1.5799C31.4917 1.9455 31.6997 2.31802 32.0469 2.39603C34.2396 2.8888 35.8452 5.09131 35.8452 7.64779V15.506C35.8452 18.4705 33.7153 20.8609 31.1225 20.8609H30.4081C30.0504 20.8609 29.7808 21.1846 29.7808 21.5573V24.6685C29.7808 25.2626 29.4384 25.6136 29.1251 25.7468C28.8125 25.8798 28.361 25.8689 28.0217 25.4305L24.6742 21.1033L24.6741 21.1033C24.5567 20.9516 24.3839 20.8609 24.1982 20.8609H17.2035C14.6107 20.8609 12.4808 18.4705 12.4808 15.506V7.64779C12.4808 4.68324 14.6107 2.29293 17.2035 2.29293H30.0678C30.4256 2.29293 30.6952 1.96916 30.6952 1.59646C30.6952 1.22377 30.4256 0.9 30.0678 0.9H17.2035C13.8962 0.9 11.2261 3.93886 11.2261 7.64779V10.7854H6.87741C3.57012 10.7854 0.9 13.8243 0.9 17.5332V24.1985C0.9 24.5712 1.16958 24.8949 1.52734 24.8949C1.8851 24.8949 2.15469 24.5712 2.15469 24.1985V17.5332C2.15469 14.5686 4.28464 12.1783 6.87741 12.1783H11.2261V15.506C11.2261 19.2149 13.8963 22.2538 17.2036 22.2538H23.9098L25.5192 24.334V25.3914C25.5192 28.3559 23.3892 30.7462 20.7964 30.7462H13.8018C13.6161 30.7462 13.4432 30.837 13.3258 30.9887L13.3258 30.9887L9.97836 35.3158C9.63887 35.7542 9.18767 35.765 8.87501 35.6321L8.83589 35.7241L8.875 35.6321C8.56157 35.4989 8.21913 35.1477 8.21913 34.5531V31.4427C8.21913 31.07 7.94955 30.7462 7.59178 30.7462H6.87741C4.64011 30.7462 2.68588 28.9458 2.24641 26.4444L2.24641 26.4443C2.18168 26.0767 1.85802 25.8162 1.506 25.8953L1.50598 25.8953C1.15881 25.9733 0.950799 26.3458 1.01492 26.7114L1.01492 26.7114C1.56587 29.8477 4.02471 32.1391 6.87741 32.1391H6.96444V34.553C6.96444 35.6154 7.533 36.5533 8.42566 36.9327C8.69008 37.0451 8.96303 37.1 9.23309 37.1C9.87463 37.1 10.4916 36.7905 10.9302 36.2238L10.8511 36.1626L10.9302 36.2238L14.0902 32.1391H20.7964C23.9421 32.1391 26.5103 29.3892 26.7537 25.9296L27.0699 26.3384L27.0699 26.3385C27.5085 26.9051 28.1252 27.2147 28.767 27.2146C29.037 27.2146 29.3101 27.1597 29.5745 27.0473L29.5746 27.0473C30.4671 26.6679 31.0356 25.7304 31.0356 24.6684V22.2537H31.1226C34.4299 22.2537 37.1 19.2148 37.1 15.5059V7.64771C37.0999 4.44717 35.0877 1.65817 32.2963 1.03079Z" fill="#111111" stroke="#111111" stroke-width="0.2"/>
<path d="M11.9965 24.2961V24.2586C11.9965 23.8859 11.7269 23.5621 11.3691 23.5621C11.0114 23.5621 10.7418 23.8859 10.7418 24.2586V24.2961C10.7418 24.6688 11.0114 24.9926 11.3691 24.9926C11.7269 24.9926 11.9965 24.6688 11.9965 24.2961Z" fill="#111111" stroke="#111111" stroke-width="0.2"/>
<path d="M13.9121 24.9926C14.2699 24.9926 14.5394 24.6688 14.5394 24.2961V24.2586C14.5394 23.8859 14.2699 23.5621 13.9121 23.5621C13.5543 23.5621 13.2848 23.8859 13.2848 24.2586V24.2961C13.2848 24.6688 13.5543 24.9926 13.9121 24.9926Z" fill="#111111" stroke="#111111" stroke-width="0.2"/>
<path d="M16.932 24.2961V24.2586C16.932 23.8859 16.6624 23.5621 16.3047 23.5621C15.9469 23.5621 15.6773 23.8859 15.6773 24.2586V24.2961C15.6773 24.6688 15.9469 24.9926 16.3047 24.9926C16.6624 24.9926 16.932 24.6688 16.932 24.2961Z" fill="#111111" stroke="#111111" stroke-width="0.2"/>
<path d="M24.2079 7.11177C25.331 7.13739 26.2749 8.15457 26.3343 9.45067C26.366 10.141 26.1524 10.7937 25.7357 11.29C25.3191 11.7863 24.7606 12.0562 24.163 12.0562C23.8052 12.0562 23.5357 12.3799 23.5357 12.7526V14.5665C23.5357 14.9392 23.8052 15.263 24.163 15.263C24.5208 15.263 24.7903 14.9392 24.7903 14.5665V13.3853C25.501 13.2387 26.1474 12.8433 26.6538 12.24C27.3058 11.4632 27.6364 10.4468 27.5874 9.37963L27.5874 9.37963L22.0099 9.23645C22.0099 9.23645 22.0099 9.23644 22.0099 9.23643C22.1637 7.99009 23.1183 7.08699 24.2079 7.11177ZM24.2079 7.11177L24.2102 7.0118L24.2079 7.11177Z" fill="#111111" stroke="#111111" stroke-width="0.2"/>
<path d="M24.1631 16.2066C23.8053 16.2066 23.5357 16.5304 23.5357 16.9031V16.9406C23.5357 17.3133 23.8053 17.637 24.1631 17.637C24.5208 17.637 24.7904 17.3133 24.7904 16.9406V16.9031C24.7904 16.5304 24.5208 16.2066 24.1631 16.2066Z" fill="#111111" stroke="#111111" stroke-width="0.2"/>
</svg>
