<svg width="38" height="38" viewBox="0 0 38 38" fill="none" xmlns="http://www.w3.org/2000/svg">
<path d="M15.25 13H3.25C2.0095 13 1 11.9905 1 10.75V3.25C1 2.0095 2.0095 1 3.25 1H15.25C16.4905 1 17.5 2.0095 17.5 3.25V10.75C17.5 11.9905 16.4905 13 15.25 13ZM3.25 2.5C2.8375 2.5 2.5 2.836 2.5 3.25V10.75C2.5 11.164 2.8375 11.5 3.25 11.5H15.25C15.6625 11.5 16 11.164 16 10.75V3.25C16 2.836 15.6625 2.5 15.25 2.5H3.25Z" fill="#111111" stroke="#111111" stroke-width="0.1"/>
<path d="M15.25 37H3.25C2.0095 37 1 35.9905 1 34.75V18.25C1 17.0095 2.0095 16 3.25 16H15.25C16.4905 16 17.5 17.0095 17.5 18.25V34.75C17.5 35.9905 16.4905 37 15.25 37ZM3.25 17.5C2.8375 17.5 2.5 17.836 2.5 18.25V34.75C2.5 35.164 2.8375 35.5 3.25 35.5H15.25C15.6625 35.5 16 35.164 16 34.75V18.25C16 17.836 15.6625 17.5 15.25 17.5H3.25Z" fill="#111111" stroke="#111111" stroke-width="0.1"/>
<path d="M34.75 37H22.75C21.5095 37 20.5 35.9905 20.5 34.75V27.25C20.5 26.0095 21.5095 25 22.75 25H34.75C35.9905 25 37 26.0095 37 27.25V34.75C37 35.9905 35.9905 37 34.75 37ZM22.75 26.5C22.3375 26.5 22 26.836 22 27.25V34.75C22 35.164 22.3375 35.5 22.75 35.5H34.75C35.1625 35.5 35.5 35.164 35.5 34.75V27.25C35.5 26.836 35.1625 26.5 34.75 26.5H22.75Z" fill="#111111" stroke="#111111" stroke-width="0.1"/>
<path d="M34.7501 22H22.7501C21.5096 22 20.5001 20.9905 20.5001 19.75V3.25C20.5001 2.0095 21.5096 1 22.7501 1H34.7501C35.9906 1 37.0001 2.0095 37.0001 3.25V19.75C37.0001 20.9905 35.9906 22 34.7501 22ZM22.7501 2.5C22.3376 2.5 22.0001 2.836 22.0001 3.25V19.75C22.0001 20.164 22.3376 20.5 22.7501 20.5H34.7501C35.1626 20.5 35.5001 20.164 35.5001 19.75V3.25C35.5001 2.836 35.1626 2.5 34.7501 2.5H22.7501Z" fill="#111111" stroke="#111111" stroke-width="0.1"/>
</svg>
