<svg width="28" height="28" viewBox="0 0 28 28" fill="none" xmlns="http://www.w3.org/2000/svg">
<path d="M6.5 9H8.16667H21.5" stroke="#DF0000" stroke-width="2" stroke-linecap="round" stroke-linejoin="round"/>
<path d="M10.667 9.00033V7.33366C10.667 6.89163 10.8426 6.46771 11.1551 6.15515C11.4677 5.84259 11.8916 5.66699 12.3337 5.66699H15.667C16.109 5.66699 16.5329 5.84259 16.8455 6.15515C17.1581 6.46771 17.3337 6.89163 17.3337 7.33366V9.00033M19.8337 9.00033V20.667C19.8337 21.109 19.6581 21.5329 19.3455 21.8455C19.0329 22.1581 18.609 22.3337 18.167 22.3337H9.83366C9.39163 22.3337 8.96771 22.1581 8.65515 21.8455C8.34259 21.5329 8.16699 21.109 8.16699 20.667V9.00033H19.8337Z" stroke="#DF0000" stroke-width="2" stroke-linecap="round" stroke-linejoin="round"/>
<path d="M12.333 13.167V18.167" stroke="#DF0000" stroke-width="2" stroke-linecap="round" stroke-linejoin="round"/>
<path d="M15.667 13.167V18.167" stroke="#DF0000" stroke-width="2" stroke-linecap="round" stroke-linejoin="round"/>
</svg>
