<svg width="28" height="28" viewBox="0 0 28 28" fill="none" xmlns="http://www.w3.org/2000/svg">
<path d="M13.167 7.33301H7.33366C6.89163 7.33301 6.46771 7.5086 6.15515 7.82116C5.84259 8.13372 5.66699 8.55765 5.66699 8.99967V20.6663C5.66699 21.1084 5.84259 21.5323 6.15515 21.8449C6.46771 22.1574 6.89163 22.333 7.33366 22.333H19.0003C19.4424 22.333 19.8663 22.1574 20.1788 21.8449C20.4914 21.5323 20.667 21.1084 20.667 20.6663V14.833" stroke="#EFA804" stroke-width="2" stroke-linecap="round" stroke-linejoin="round"/>
<path d="M19.417 6.0832C19.7485 5.75168 20.1982 5.56543 20.667 5.56543C21.1358 5.56543 21.5855 5.75168 21.917 6.0832C22.2485 6.41472 22.4348 6.86436 22.4348 7.3332C22.4348 7.80204 22.2485 8.25168 21.917 8.5832L14.0003 16.4999L10.667 17.3332L11.5003 13.9999L19.417 6.0832Z" stroke="#EFA804" stroke-width="2" stroke-linecap="round" stroke-linejoin="round"/>
</svg>
