<svg width="38" height="38" viewBox="0 0 38 38" fill="none" xmlns="http://www.w3.org/2000/svg">
<path d="M8.85285 21.4307H4.03595C3.81123 21.4307 3.62109 21.6225 3.62109 21.8623V26.4665C3.62109 26.7003 3.80547 26.8981 4.03595 26.8981H8.85861C9.08332 26.8981 9.27346 26.7063 9.27346 26.4665V21.8623C9.2677 21.6225 9.08332 21.4307 8.85285 21.4307ZM8.44376 26.0288H4.44504V22.2879H8.44376V26.0288Z" fill="#111111" stroke="#111111" stroke-width="0.4"/>
<path d="M16.2805 21.4307H11.4578C11.2331 21.4307 11.043 21.6225 11.043 21.8623V26.4665C11.043 26.7003 11.2273 26.8981 11.4578 26.8981H16.2805C16.5052 26.8981 16.6953 26.7063 16.6953 26.4665V21.8623C16.6896 21.6225 16.5052 21.4307 16.2805 21.4307ZM15.8656 26.0288H11.8669V22.2879H15.8656V26.0288Z" fill="#111111" stroke="#111111" stroke-width="0.4"/>
<path d="M8.85285 28.583H4.03595C3.81123 28.583 3.62109 28.7748 3.62109 29.0146V33.6188C3.62109 33.8526 3.80547 34.0505 4.03595 34.0505H8.85861C9.08332 34.0505 9.27346 33.8586 9.27346 33.6188V29.0146C9.2677 28.7748 9.08332 28.583 8.85285 28.583ZM8.44376 33.1872H4.44504V29.4463H8.44376V33.1872Z" fill="#111111" stroke="#111111" stroke-width="0.4"/>
<path d="M16.2805 28.583H11.4578C11.2331 28.583 11.043 28.7748 11.043 29.0146V33.6188C11.043 33.8526 11.2273 34.0505 11.4578 34.0505H16.2805C16.5052 34.0505 16.6953 33.8586 16.6953 33.6188V29.0146C16.6896 28.7748 16.5052 28.583 16.2805 28.583ZM15.8656 33.1872H11.8669V29.4463H15.8656V33.1872Z" fill="#111111" stroke="#111111" stroke-width="0.4"/>
<path d="M8.85285 14.2783H4.03595C3.81123 14.2783 3.62109 14.4702 3.62109 14.71V19.3141C3.62109 19.5479 3.80547 19.7458 4.03595 19.7458H8.85861C9.08332 19.7458 9.27346 19.5539 9.27346 19.3141V14.71C9.2677 14.4702 9.08332 14.2783 8.85285 14.2783ZM8.44376 18.8765H4.44504V15.1356H8.44376V18.8765Z" fill="#111111" stroke="#111111" stroke-width="0.4"/>
<path d="M23.7072 14.2783H18.8846C18.6599 14.2783 18.4697 14.4702 18.4697 14.71V19.3141C18.4697 19.5479 18.6541 19.7458 18.8846 19.7458H23.7072C23.932 19.7458 24.1221 19.5539 24.1221 19.3141V14.71C24.1163 14.4702 23.932 14.2783 23.7072 14.2783ZM23.2924 18.8765H19.2937V15.1356H23.2924V18.8765Z" fill="#111111" stroke="#111111" stroke-width="0.4"/>
<path d="M16.2805 14.2783H11.4578C11.2331 14.2783 11.043 14.4702 11.043 14.71V19.3141C11.043 19.5479 11.2273 19.7458 11.4578 19.7458H16.2805C16.5052 19.7458 16.6953 19.5539 16.6953 19.3141V14.71C16.6896 14.4702 16.5052 14.2783 16.2805 14.2783ZM15.8656 18.8765H11.8669V15.1356H15.8656V18.8765Z" fill="#111111" stroke="#111111" stroke-width="0.4"/>
<path d="M4.03595 11.5276H23.7069C23.9316 11.5276 24.1217 11.3358 24.1217 11.096V4.39355C24.1217 4.15975 23.9374 3.96191 23.7069 3.96191H4.03595C3.81123 3.96191 3.62109 4.15375 3.62109 4.39355V11.102C3.62109 11.3358 3.80547 11.5276 4.03595 11.5276ZM4.44504 4.8192H23.292V10.6703H4.44504V4.8192Z" fill="#111111" stroke="#111111" stroke-width="0.4"/>
<path d="M29.717 21.8626C28.6569 21.8626 27.6543 22.1024 26.7439 22.5281V3.43397C26.7439 2.09109 25.6953 1 24.4046 1H3.33931C2.04866 1 1 2.09109 1 3.43397V34.56C1 35.9089 2.04866 37 3.33931 37H24.4046C24.6408 37 24.8656 36.964 25.0615 36.8981C25.5224 36.7602 25.9373 36.4664 26.2369 36.0708C27.274 36.6583 28.4609 37 29.7228 37C33.733 37 37 33.6068 37 29.4283C37 25.2498 33.7273 21.8626 29.717 21.8626ZM24.8195 36.0828C24.6927 36.1247 24.5487 36.1487 24.4046 36.1487H3.33931C2.50384 36.1487 1.82394 35.4353 1.82394 34.566V3.43397C1.82394 2.5647 2.50384 1.85729 3.33931 1.85729H24.4046C25.2401 1.85729 25.92 2.5647 25.92 3.43397V22.9897C25.2401 23.4273 24.6293 23.9669 24.1165 24.6083V21.8626C24.1165 21.6288 23.9321 21.431 23.7017 21.431H18.879C18.6543 21.431 18.4641 21.6228 18.4641 21.8626V26.4668C18.4641 26.7006 18.6485 26.8984 18.879 26.8984H22.8662C22.6818 27.438 22.5493 28.0015 22.4859 28.595H18.879C18.6543 28.595 18.4641 28.7868 18.4641 29.0266V33.6308C18.4641 33.8646 18.6485 34.0624 18.879 34.0624H23.7017C23.7766 34.0624 23.8457 34.0325 23.9091 33.9965C24.3643 34.626 24.9059 35.1775 25.5282 35.6331C25.338 35.831 25.096 35.9988 24.8195 36.0828ZM22.4398 29.4403C22.4398 30.7172 22.751 31.9222 23.2926 32.9774V33.1812H19.2939V29.4403H22.4398ZM23.2926 25.8853C23.2695 25.9332 23.2465 25.9812 23.2234 26.0291H19.2939V22.2883H23.2926V25.8853ZM29.717 36.1487C26.162 36.1487 23.2638 33.1392 23.2638 29.4343C23.2638 25.7294 26.1562 22.7199 29.717 22.7199C33.2779 22.7199 36.1703 25.7294 36.1703 29.4343C36.1703 33.1392 33.2721 36.1487 29.717 36.1487Z" fill="#111111" stroke="#111111" stroke-width="0.4"/>
<path d="M29.7168 23.7324C26.6976 23.7324 24.2373 26.2923 24.2373 29.4337C24.2373 32.5751 26.6976 35.1349 29.7168 35.1349C32.736 35.1349 35.1963 32.5751 35.1963 29.4337C35.1963 26.2923 32.736 23.7324 29.7168 23.7324ZM29.7168 34.2776C27.147 34.2776 25.0612 32.1014 25.0612 29.4337C25.0612 26.7659 27.1528 24.5897 29.7168 24.5897C32.2808 24.5897 34.3724 26.7659 34.3724 29.4337C34.3724 32.1014 32.2866 34.2776 29.7168 34.2776Z" fill="#111111" stroke="#111111" stroke-width="0.4"/>
<path d="M29.7167 27.1149C30.218 27.1149 30.6271 27.5405 30.6271 28.0621C30.6271 28.2959 30.8115 28.4937 31.042 28.4937C31.2667 28.4937 31.4568 28.3019 31.4568 28.0621C31.4568 27.2168 30.8922 26.5094 30.1374 26.3175V25.9219C30.1374 25.6881 29.953 25.4902 29.7225 25.4902C29.4978 25.4902 29.3076 25.6821 29.3076 25.9219V26.3175C28.5528 26.5094 27.9882 27.2168 27.9882 28.0621C27.9882 29.0573 28.766 29.8666 29.7225 29.8666C30.2238 29.8666 30.6329 30.2922 30.6329 30.8138C30.6329 31.3354 30.2238 31.761 29.7225 31.761C29.2212 31.761 28.8121 31.3354 28.8121 30.8138C28.8121 30.58 28.6277 30.3822 28.3973 30.3822C28.1726 30.3822 27.9824 30.574 27.9824 30.8138C27.9824 31.6591 28.5471 32.3665 29.3019 32.5583V32.954C29.3019 33.1878 29.4863 33.3857 29.7167 33.3857C29.9414 33.3857 30.1316 33.1938 30.1316 32.954V32.5523C30.8864 32.3605 31.4511 31.6531 31.4511 30.8078C31.4511 29.8126 30.6732 29.0033 29.7167 29.0033C29.2155 29.0033 28.8064 28.5777 28.8064 28.0561C28.8064 27.5405 29.2155 27.1149 29.7167 27.1149Z" fill="#111111" stroke="#111111" stroke-width="0.4"/>
<path d="M30.1952 16.7422C30.201 16.8082 30.2183 16.8621 30.2413 16.9161C30.2471 16.9221 30.2413 16.9341 30.2471 16.9401L32.4942 20.7949C32.5691 20.9207 32.7016 20.9987 32.8457 20.9987C32.9897 20.9987 33.1222 20.9207 33.1971 20.7889L35.4385 16.9341C35.4443 16.9281 35.4385 16.9161 35.4443 16.9101C35.4731 16.8561 35.4903 16.7962 35.4961 16.7302C35.4961 16.7242 35.5019 16.7183 35.5019 16.7123C35.5019 16.7123 35.5019 16.7123 35.5019 16.7063V4.05081C35.5019 2.52808 34.3092 1.28711 32.8457 1.28711C31.3822 1.28711 30.1895 2.52808 30.1895 4.05081V16.7183C30.1895 16.7183 30.1895 16.7183 30.1895 16.7242C30.1895 16.7302 30.1952 16.7362 30.1952 16.7422ZM31.0134 6.0951H34.6779V16.2926H31.0134V6.0951ZM32.8457 19.7517L31.3303 17.1499H34.3553L32.8457 19.7517ZM31.0134 4.05081C31.0134 3.00168 31.8373 2.14439 32.8457 2.14439C33.854 2.14439 34.6779 3.00168 34.6779 4.05081V5.23782H31.0134V4.05081Z" fill="#111111" stroke="#111111" stroke-width="0.4"/>
</svg>
