<svg width="38" height="38" viewBox="0 0 38 38" fill="none" xmlns="http://www.w3.org/2000/svg">
<path d="M13.4424 23.3584V31.7587H24.5579V23.3584L19.0004 19.3916L13.4424 23.3584ZM23.4335 30.6343H14.5674V23.9377L19.0004 20.7737L23.4335 23.9377V30.6343Z" fill="#111111" stroke="#111111" stroke-width="0.2"/>
<path d="M12.3828 21.3915V22.9603L18.9995 18.228L25.6162 22.9603V21.3915L18.9995 16.6592L12.3828 21.3915Z" fill="#111111" stroke="#111111" stroke-width="0.2"/>
<path d="M14.1017 11.757H12.3203V15.3125H14.1017V11.757Z" fill="#111111" stroke="#111111" stroke-width="0.2"/>
<path d="M16.9963 9.72559H15.2148V15.3129H16.9963V9.72559Z" fill="#111111" stroke="#111111" stroke-width="0.2"/>
<path d="M19.8908 7.44043H18.1094V15.3132H19.8908V7.44043Z" fill="#111111" stroke="#111111" stroke-width="0.2"/>
<path d="M22.7853 5.15332H21.0039V15.3121H22.7853V5.15332Z" fill="#111111" stroke="#111111" stroke-width="0.2"/>
<path d="M25.6799 9.72559H23.8984V15.3129H25.6799V9.72559Z" fill="#111111" stroke="#111111" stroke-width="0.2"/>
<path d="M37 1H1V37H37V1ZM35.875 35.875H2.125V2.125H35.875V35.875Z" fill="#111111" stroke="#111111" stroke-width="0.2"/>
</svg>
