<svg width="11" height="11" viewBox="0 0 11 11" fill="none" xmlns="http://www.w3.org/2000/svg">
<path d="M10.0833 4.58335H6.41665V0.91668C6.41665 0.410403 6.00625 0 5.49997 0C4.9937 0 4.58329 0.410403 4.58329 0.91668V4.58335H0.91668C0.410403 4.58335 0 4.99375 0 5.50003C0 6.0063 0.410403 6.41665 0.91668 6.41665H4.58335V10.0833C4.58335 10.5896 4.99375 11 5.50003 11C6.0063 11 6.41665 10.5895 6.41665 10.0833V6.41665H10.0833C10.5896 6.41665 11 6.00625 11 5.49997C11 4.9937 10.5895 4.58335 10.0833 4.58335Z" fill="white"/>
</svg>
