<svg width="15" height="15" viewBox="0 0 15 15" fill="none" xmlns="http://www.w3.org/2000/svg">
<path d="M14.8167 13.9331L10.5511 9.6675C11.3774 8.64688 11.8749 7.35 11.8749 5.93751C11.8749 2.66376 9.21113 0 5.93742 0C2.6637 0 0 2.66373 0 5.93748C0 9.21123 2.66373 11.875 5.93745 11.875C7.34992 11.875 8.64679 11.3775 9.66739 10.5512L13.933 14.8169C14.0548 14.9387 14.2148 15 14.3749 15C14.5349 15 14.6949 14.9387 14.8167 14.8169C15.0611 14.5725 15.0611 14.1775 14.8167 13.9331ZM5.93745 10.625C3.35246 10.625 1.25 8.52249 1.25 5.93748C1.25 3.35247 3.35246 1.24998 5.93745 1.24998C8.52243 1.24998 10.6249 3.35247 10.6249 5.93748C10.6249 8.52249 8.5224 10.625 5.93745 10.625Z" fill="black"/>
</svg>
