<svg width="36" height="36" viewBox="0 0 36 36" fill="none" xmlns="http://www.w3.org/2000/svg">
<path d="M11.7562 17.791C11.3625 17.791 11.0812 17.4328 11.0812 17.0149C11.0812 16.597 11.3625 16.2985 11.7562 16.2985H24.075C24.4688 16.2985 24.75 16.597 24.75 17.0149C24.75 17.4328 24.4688 17.791 24.075 17.791H11.7562ZM11.925 9.85075C11.5312 9.85075 11.25 9.49254 11.25 9.07463C11.25 8.71642 11.5312 8.35821 11.925 8.35821H24.1875C24.5812 8.35821 24.9187 8.71642 24.9187 9.07463C24.9187 9.49254 24.5812 9.85075 24.1875 9.85075H11.925ZM11.8125 13.791C11.475 13.791 11.1375 13.4925 11.1375 13.0746C11.1375 12.6567 11.475 12.3582 11.8125 12.3582H24.1312C24.525 12.3582 24.8062 12.6567 24.8062 13.0746C24.8062 13.4925 24.525 13.791 24.1312 13.791H11.8125ZM8.15625 4.41791H27.8438H31.1062C31.5 4.41791 31.8375 4.71642 31.8375 5.13433C31.8375 5.55224 31.5 5.85075 31.1062 5.85075H28.5188V8.83582H34.5938V1.49254H1.40625V8.83582H7.48125V5.85075H4.8375C4.44375 5.85075 4.1625 5.55224 4.1625 5.13433C4.1625 4.71642 4.44375 4.41791 4.8375 4.41791H8.1H8.15625ZM28.5188 10.2687V35.2836C28.5188 35.7015 28.2375 36 27.8438 36H8.15625C7.7625 36 7.48125 35.7015 7.48125 35.2836V10.2687H0.675C0.3375 10.2687 0 9.97015 0 9.55224V0.716418C0 0.358209 0.3375 0 0.675 0H35.2687C35.6625 0 36 0.358209 36 0.716418V9.55224C36 9.97015 35.6625 10.2687 35.2687 10.2687H28.5188ZM8.83125 5.85075V34.5672H27.1125V5.85075H8.83125Z" fill="#111111"/>
<path d="M14.7686 23.4005H16.2356C16.7456 23.4005 17.1176 23.5205 17.3516 23.7605C17.5856 23.9945 17.7026 24.3575 17.7026 24.8495V25.2365C17.7026 25.8905 17.4866 26.3045 17.0546 26.4785V26.4965C17.2946 26.5685 17.4626 26.7155 17.5586 26.9375C17.6606 27.1595 17.7116 27.4565 17.7116 27.8285V28.9355C17.7116 29.1155 17.7176 29.2625 17.7296 29.3765C17.7416 29.4845 17.7716 29.5925 17.8196 29.7005H16.8116C16.7756 29.5985 16.7516 29.5025 16.7396 29.4125C16.7276 29.3225 16.7216 29.1605 16.7216 28.9265V27.7745C16.7216 27.4865 16.6736 27.2855 16.5776 27.1715C16.4876 27.0575 16.3286 27.0005 16.1006 27.0005H15.7586V29.7005H14.7686V23.4005ZM16.1186 26.1005C16.3166 26.1005 16.4636 26.0495 16.5596 25.9475C16.6616 25.8455 16.7126 25.6745 16.7126 25.4345V24.9485C16.7126 24.7205 16.6706 24.5555 16.5866 24.4535C16.5086 24.3515 16.3826 24.3005 16.2086 24.3005H15.7586V26.1005H16.1186Z" fill="#111111"/>
<path d="M19.6854 29.7905C19.2054 29.7905 18.8424 29.6555 18.5964 29.3855C18.3504 29.1095 18.2274 28.7165 18.2274 28.2065V27.8465H19.1634V28.2785C19.1634 28.6865 19.3344 28.8905 19.6764 28.8905C19.8444 28.8905 19.9704 28.8425 20.0544 28.7465C20.1444 28.6445 20.1894 28.4825 20.1894 28.2605C20.1894 27.9965 20.1294 27.7655 20.0094 27.5675C19.8894 27.3635 19.6674 27.1205 19.3434 26.8385C18.9354 26.4785 18.6504 26.1545 18.4884 25.8665C18.3264 25.5725 18.2454 25.2425 18.2454 24.8765C18.2454 24.3785 18.3714 23.9945 18.6234 23.7245C18.8754 23.4485 19.2414 23.3105 19.7214 23.3105C20.1954 23.3105 20.5524 23.4485 20.7924 23.7245C21.0384 23.9945 21.1614 24.3845 21.1614 24.8945V25.1555H20.2254V24.8315C20.2254 24.6155 20.1834 24.4595 20.0994 24.3635C20.0154 24.2615 19.8924 24.2105 19.7304 24.2105C19.4004 24.2105 19.2354 24.4115 19.2354 24.8135C19.2354 25.0415 19.2954 25.2545 19.4154 25.4525C19.5414 25.6505 19.7664 25.8905 20.0904 26.1725C20.5044 26.5325 20.7894 26.8595 20.9454 27.1535C21.1014 27.4475 21.1794 27.7925 21.1794 28.1885C21.1794 28.7045 21.0504 29.1005 20.7924 29.3765C20.5404 29.6525 20.1714 29.7905 19.6854 29.7905Z" fill="#111111"/>
</svg>
