<svg width="39" height="36" viewBox="0 0 39 36" fill="none" xmlns="http://www.w3.org/2000/svg">
<path fill-rule="evenodd" clip-rule="evenodd" d="M37.9559 20.9371C38.8441 16.7814 38.0563 12.4723 35.7382 8.80682L35.7173 8.8179H28.3889V2.23129H28.3693L28.3752 2.22141C24.3165 0.183524 19.588 -0.441029 15.0646 0.463309C10.5412 1.36765 6.52905 3.73967 3.77056 7.14048C1.01206 10.5413 -0.306093 14.7407 0.0599975 18.9617C0.42609 23.1827 2.45164 27.1396 5.76187 30.1003C9.07211 33.0609 13.443 34.8249 18.0657 35.0659C22.6884 35.3068 27.2502 34.0085 30.9068 31.411C34.5635 28.8135 37.0676 25.0927 37.9559 20.9371ZM28.3889 12.7418V17.4015C28.3889 22.1421 24.1865 25.9851 19.0026 25.9851C13.8186 25.9851 9.61624 22.1421 9.61624 17.4015C9.61624 12.6609 13.8186 8.8179 19.0026 8.8179H24.098V5.52023C21.5719 4.65424 18.8119 4.46564 16.1487 4.99808C12.8239 5.66278 9.87495 7.40626 7.8474 9.90591C5.81986 12.4056 4.851 15.4922 5.12008 18.5947C5.38917 21.6972 6.87798 24.6056 9.31105 26.7817C11.7441 28.9578 14.9568 30.2544 18.3546 30.4315C21.7524 30.6086 25.1053 29.6543 27.793 27.7451C30.4807 25.8359 32.3213 23.1011 32.9741 20.0466C33.5008 17.5826 33.2258 15.0451 32.2053 12.7418H28.3889ZM19.0026 12.7418H24.098V17.4015C24.098 19.975 21.8167 22.0612 19.0026 22.0612C16.1884 22.0612 13.9071 19.975 13.9071 17.4015C13.9071 14.828 16.1884 12.7418 19.0026 12.7418Z" fill="url(#paint0_linear_423_101)"/>
<defs>
<linearGradient id="paint0_linear_423_101" x1="15.4396" y1="33.5002" x2="31.7345" y2="3.38762" gradientUnits="userSpaceOnUse">
<stop stop-color="#DD4444"/>
<stop offset="1" stop-color="#FF6A6A"/>
</linearGradient>
</defs>
</svg>
