<svg width="117" height="39" viewBox="0 0 117 39" fill="none" xmlns="http://www.w3.org/2000/svg">
<path fill-rule="evenodd" clip-rule="evenodd" d="M37.9559 22.8305C38.8441 18.2862 38.0563 13.574 35.7382 9.56582L35.7173 9.57793H28.3889V2.37535H28.3693L28.3752 2.36455C24.3165 0.13608 19.588 -0.546881 15.0646 0.44203C10.5412 1.43094 6.52905 4.02479 3.77056 7.74364C1.01206 11.4625 -0.306093 16.0546 0.0599975 20.6704C0.42609 25.2861 2.45164 29.6131 5.76187 32.8506C9.07211 36.0881 13.443 38.0171 18.0657 38.2806C22.6884 38.5441 27.2502 37.1243 30.9068 34.2839C34.5635 31.4435 37.0676 27.3747 37.9559 22.8305ZM28.3889 13.8688V18.9643C28.3889 24.1482 24.1865 28.3506 19.0026 28.3506C13.8186 28.3506 9.61624 24.1482 9.61624 18.9643C9.61624 13.7803 13.8186 9.57793 19.0026 9.57793H24.098V5.97187C21.5719 5.02489 18.8119 4.81865 16.1487 5.40089C12.8239 6.12775 9.87494 8.03427 7.8474 10.7677C5.81986 13.5011 4.851 16.8764 5.12008 20.269C5.38917 23.6617 6.87798 26.8421 9.31105 29.2217C11.7441 31.6013 14.9568 33.0191 18.3546 33.2128C21.7524 33.4065 25.1053 32.3629 27.793 30.2752C30.4807 28.1874 32.3213 25.1968 32.9741 21.8567C33.5008 19.1623 33.2258 16.3875 32.2053 13.8688H28.3889ZM19.0026 13.8688H24.098V18.9643C24.098 21.7784 21.8167 24.0597 19.0026 24.0597C16.1884 24.0597 13.9071 21.7784 13.9071 18.9643C13.9071 16.1501 16.1884 13.8688 19.0026 13.8688Z" fill="url(#paint0_linear_460_91)"/>
<path d="M57.8149 7.60679C60.0625 7.60679 62.0343 8.04609 63.7302 8.92471C65.4465 9.80332 66.7645 11.0599 67.6839 12.6946C68.6239 14.3088 69.0938 16.1886 69.0938 18.334C69.0938 20.4795 68.6239 22.3593 67.6839 23.9735C66.7645 25.5673 65.4465 26.8035 63.7302 27.6821C62.0343 28.5607 60.0625 29 57.8149 29H50.3364V7.60679H57.8149ZM57.6616 25.3527C59.9092 25.3527 61.646 24.7397 62.872 23.5138C64.098 22.2878 64.711 20.5612 64.711 18.334C64.711 16.1069 64.098 14.3701 62.872 13.1237C61.646 11.8568 59.9092 11.2234 57.6616 11.2234H54.6273V25.3527H57.6616ZM95.6299 7.60679V29H91.339V15.0852L85.6076 29H82.3587L76.5967 15.0852V29H72.3058V7.60679H77.179L83.9831 23.5138L90.7873 7.60679H95.6299ZM107.259 29.2145C105.767 29.2145 104.418 28.9591 103.213 28.4483C102.028 27.9375 101.088 27.2019 100.393 26.2416C99.6985 25.2812 99.3409 24.1472 99.3205 22.8395H103.918C103.979 23.7181 104.286 24.4128 104.837 24.9236C105.409 25.4345 106.186 25.6899 107.167 25.6899C108.168 25.6899 108.955 25.4549 109.527 24.9849C110.099 24.4946 110.385 23.8611 110.385 23.0847C110.385 22.4513 110.191 21.9302 109.803 21.5216C109.414 21.1129 108.924 20.7962 108.331 20.5714C107.759 20.3262 106.962 20.0606 105.941 19.7746C104.551 19.3659 103.417 18.9675 102.539 18.5792C101.68 18.1706 100.935 17.5678 100.301 16.7709C99.6883 15.9536 99.3818 14.8707 99.3818 13.5221C99.3818 12.2553 99.6985 11.1519 100.332 10.212C100.965 9.27206 101.854 8.55691 102.998 8.06652C104.143 7.5557 105.45 7.30029 106.922 7.30029C109.128 7.30029 110.916 7.84176 112.285 8.92471C113.675 9.98721 114.441 11.4788 114.584 13.3995H109.864C109.823 12.6639 109.506 12.0612 108.914 11.5912C108.342 11.1008 107.575 10.8556 106.615 10.8556C105.777 10.8556 105.103 11.0702 104.592 11.4992C104.102 11.9283 103.857 12.5515 103.857 13.3689C103.857 13.941 104.04 14.4211 104.408 14.8094C104.796 15.1772 105.266 15.4837 105.818 15.7289C106.39 15.9536 107.187 16.2192 108.209 16.5257C109.598 16.9344 110.732 17.343 111.611 17.7517C112.489 18.1604 113.245 18.7733 113.879 19.5907C114.512 20.408 114.829 21.4807 114.829 22.8088C114.829 23.9531 114.533 25.0156 113.94 25.9964C113.348 26.9771 112.479 27.7638 111.335 28.3564C110.191 28.9285 108.832 29.2145 107.259 29.2145Z" fill="#004990"/>
<defs>
<linearGradient id="paint0_linear_460_91" x1="15.4396" y1="36.5685" x2="34.0974" y2="5.03803" gradientUnits="userSpaceOnUse">
<stop stop-color="#DD4444"/>
<stop offset="1" stop-color="#FF6A6A"/>
</linearGradient>
</defs>
</svg>
